<mxfile host="app.diagrams.net" agent="Mozilla/5.0 (Macintosh; Intel Mac OS X 10_15_7) AppleWebKit/537.36 (KHTML, like Gecko) Chrome/131.0.0.0 Safari/537.36" version="25.0.3">
  <diagram id="prtHgNgQTEPvFCAcTncT" name="Page-1">
    <mxGraphModel dx="3411" dy="2157" grid="1" gridSize="10" guides="1" tooltips="1" connect="1" arrows="1" fold="1" page="1" pageScale="1" pageWidth="827" pageHeight="1169" math="0" shadow="0">
      <root>
        <mxCell id="0" />
        <mxCell id="1" parent="0" />
        <mxCell id="dNxyNK7c78bLwvsdeMH5-19" value="Pool" style="swimlane;html=1;childLayout=stackLayout;resizeParent=1;resizeParentMax=0;horizontal=0;startSize=20;horizontalStack=0;" parent="1" vertex="1">
          <mxGeometry x="160" y="200" width="2570" height="720" as="geometry">
            <mxRectangle x="160" y="200" width="40" height="50" as="alternateBounds" />
          </mxGeometry>
        </mxCell>
        <mxCell id="dNxyNK7c78bLwvsdeMH5-20" value="CUSTOMER" style="swimlane;html=1;startSize=20;horizontal=0;" parent="dNxyNK7c78bLwvsdeMH5-19" vertex="1">
          <mxGeometry x="20" width="2550" height="170" as="geometry" />
        </mxCell>
        <mxCell id="XmcZN78wewVbucl7bVps-8" style="edgeStyle=orthogonalEdgeStyle;rounded=0;orthogonalLoop=1;jettySize=auto;html=1;exitX=1;exitY=0.5;exitDx=0;exitDy=0;entryX=0;entryY=0.5;entryDx=0;entryDy=0;" edge="1" parent="dNxyNK7c78bLwvsdeMH5-20" source="XmcZN78wewVbucl7bVps-1" target="XmcZN78wewVbucl7bVps-6">
          <mxGeometry relative="1" as="geometry" />
        </mxCell>
        <mxCell id="XmcZN78wewVbucl7bVps-1" value="START" style="rounded=1;whiteSpace=wrap;html=1;" vertex="1" parent="dNxyNK7c78bLwvsdeMH5-20">
          <mxGeometry x="40" y="50" width="80" height="40" as="geometry" />
        </mxCell>
        <mxCell id="XmcZN78wewVbucl7bVps-9" style="edgeStyle=orthogonalEdgeStyle;rounded=0;orthogonalLoop=1;jettySize=auto;html=1;entryX=0;entryY=0.5;entryDx=0;entryDy=0;" edge="1" parent="dNxyNK7c78bLwvsdeMH5-20" source="XmcZN78wewVbucl7bVps-6" target="XmcZN78wewVbucl7bVps-7">
          <mxGeometry relative="1" as="geometry" />
        </mxCell>
        <mxCell id="XmcZN78wewVbucl7bVps-6" value="Report fault to Technical Shift Supervisor" style="rounded=0;whiteSpace=wrap;html=1;" vertex="1" parent="dNxyNK7c78bLwvsdeMH5-20">
          <mxGeometry x="240" y="40" width="170" height="60" as="geometry" />
        </mxCell>
        <mxCell id="XmcZN78wewVbucl7bVps-7" value="Provide complaint details (name, address, problem, etc.)" style="rounded=0;whiteSpace=wrap;html=1;" vertex="1" parent="dNxyNK7c78bLwvsdeMH5-20">
          <mxGeometry x="500" y="40" width="220" height="60" as="geometry" />
        </mxCell>
        <mxCell id="dNxyNK7c78bLwvsdeMH5-21" value="SHIFT OPERATOR" style="swimlane;html=1;startSize=20;horizontal=0;" parent="dNxyNK7c78bLwvsdeMH5-19" vertex="1">
          <mxGeometry x="20" y="170" width="2550" height="170" as="geometry" />
        </mxCell>
        <mxCell id="XmcZN78wewVbucl7bVps-16" style="edgeStyle=orthogonalEdgeStyle;rounded=0;orthogonalLoop=1;jettySize=auto;html=1;" edge="1" parent="dNxyNK7c78bLwvsdeMH5-21" source="XmcZN78wewVbucl7bVps-10" target="XmcZN78wewVbucl7bVps-12">
          <mxGeometry relative="1" as="geometry" />
        </mxCell>
        <mxCell id="XmcZN78wewVbucl7bVps-10" value="Logs Complaint Details in a Shift Book" style="whiteSpace=wrap;strokeWidth=2;" vertex="1" parent="dNxyNK7c78bLwvsdeMH5-21">
          <mxGeometry x="50" y="30" width="230" height="80" as="geometry" />
        </mxCell>
        <mxCell id="XmcZN78wewVbucl7bVps-12" value="Communicates Fault Details to Foreman" style="whiteSpace=wrap;strokeWidth=2;" vertex="1" parent="dNxyNK7c78bLwvsdeMH5-21">
          <mxGeometry x="360" y="30" width="270" height="80" as="geometry" />
        </mxCell>
        <mxCell id="XmcZN78wewVbucl7bVps-11" style="edgeStyle=orthogonalEdgeStyle;rounded=0;orthogonalLoop=1;jettySize=auto;html=1;entryX=0.5;entryY=0;entryDx=0;entryDy=0;" edge="1" parent="dNxyNK7c78bLwvsdeMH5-19" source="XmcZN78wewVbucl7bVps-7" target="XmcZN78wewVbucl7bVps-10">
          <mxGeometry relative="1" as="geometry">
            <Array as="points">
              <mxPoint x="630" y="140" />
              <mxPoint x="182" y="140" />
            </Array>
          </mxGeometry>
        </mxCell>
        <mxCell id="XmcZN78wewVbucl7bVps-18" style="edgeStyle=orthogonalEdgeStyle;rounded=0;orthogonalLoop=1;jettySize=auto;html=1;entryX=0.5;entryY=0;entryDx=0;entryDy=0;" edge="1" parent="dNxyNK7c78bLwvsdeMH5-19" source="XmcZN78wewVbucl7bVps-12" target="XmcZN78wewVbucl7bVps-17">
          <mxGeometry relative="1" as="geometry">
            <Array as="points">
              <mxPoint x="515" y="320" />
              <mxPoint x="145" y="320" />
            </Array>
          </mxGeometry>
        </mxCell>
        <mxCell id="dNxyNK7c78bLwvsdeMH5-22" value="SHIFT FOREMAN" style="swimlane;html=1;startSize=20;horizontal=0;" parent="dNxyNK7c78bLwvsdeMH5-19" vertex="1">
          <mxGeometry x="20" y="340" width="2550" height="380" as="geometry" />
        </mxCell>
        <mxCell id="XmcZN78wewVbucl7bVps-17" value="Assign a Suitable Team" style="rounded=0;whiteSpace=wrap;html=1;" vertex="1" parent="dNxyNK7c78bLwvsdeMH5-22">
          <mxGeometry x="50" y="40" width="150" height="40" as="geometry" />
        </mxCell>
        <mxCell id="XmcZN78wewVbucl7bVps-38" style="edgeStyle=orthogonalEdgeStyle;rounded=0;orthogonalLoop=1;jettySize=auto;html=1;" edge="1" parent="dNxyNK7c78bLwvsdeMH5-22" source="XmcZN78wewVbucl7bVps-32" target="XmcZN78wewVbucl7bVps-37">
          <mxGeometry relative="1" as="geometry" />
        </mxCell>
        <mxCell id="XmcZN78wewVbucl7bVps-32" value="Receive Fault Cause Information" style="rounded=0;whiteSpace=wrap;html=1;" vertex="1" parent="dNxyNK7c78bLwvsdeMH5-22">
          <mxGeometry x="310" y="40" width="140" height="40" as="geometry" />
        </mxCell>
        <mxCell id="XmcZN78wewVbucl7bVps-37" value="Provide Instructions to Resolve the Fault" style="rounded=0;whiteSpace=wrap;html=1;" vertex="1" parent="dNxyNK7c78bLwvsdeMH5-22">
          <mxGeometry x="550" y="40" width="140" height="40" as="geometry" />
        </mxCell>
        <mxCell id="XmcZN78wewVbucl7bVps-48" value="Dispatch Another Team With Additional Resources" style="whiteSpace=wrap;html=1;" vertex="1" parent="dNxyNK7c78bLwvsdeMH5-22">
          <mxGeometry x="1020" y="44" width="180" height="70" as="geometry" />
        </mxCell>
        <mxCell id="XmcZN78wewVbucl7bVps-82" value="Dispatch Assist Team" style="whiteSpace=wrap;html=1;" vertex="1" parent="dNxyNK7c78bLwvsdeMH5-22">
          <mxGeometry x="1740" y="100" width="160" height="60" as="geometry" />
        </mxCell>
        <mxCell id="XmcZN78wewVbucl7bVps-96" value="Monitors Progress and Collects NEFR" style="whiteSpace=wrap;strokeWidth=2;" vertex="1" parent="dNxyNK7c78bLwvsdeMH5-22">
          <mxGeometry x="2240" y="130" width="215" height="66" as="geometry" />
        </mxCell>
        <mxCell id="XmcZN78wewVbucl7bVps-23" value="REPAIR TEAM" style="swimlane;html=1;startSize=20;horizontal=0;" vertex="1" parent="1">
          <mxGeometry x="180" y="920" width="2550" height="1080" as="geometry" />
        </mxCell>
        <mxCell id="XmcZN78wewVbucl7bVps-28" style="edgeStyle=orthogonalEdgeStyle;rounded=0;orthogonalLoop=1;jettySize=auto;html=1;exitX=1;exitY=0.5;exitDx=0;exitDy=0;" edge="1" parent="XmcZN78wewVbucl7bVps-23" source="XmcZN78wewVbucl7bVps-24">
          <mxGeometry relative="1" as="geometry">
            <mxPoint x="290" y="100" as="targetPoint" />
          </mxGeometry>
        </mxCell>
        <mxCell id="XmcZN78wewVbucl7bVps-24" value="Inspect Fault Location" style="rounded=0;whiteSpace=wrap;html=1;" vertex="1" parent="XmcZN78wewVbucl7bVps-23">
          <mxGeometry x="50" y="80" width="150" height="40" as="geometry" />
        </mxCell>
        <mxCell id="XmcZN78wewVbucl7bVps-31" value="Report Fault Cause to FOREMAN" style="rounded=0;whiteSpace=wrap;html=1;" vertex="1" parent="XmcZN78wewVbucl7bVps-23">
          <mxGeometry x="290" y="80" width="150" height="40" as="geometry" />
        </mxCell>
        <mxCell id="XmcZN78wewVbucl7bVps-56" value="" style="edgeStyle=orthogonalEdgeStyle;rounded=0;orthogonalLoop=1;jettySize=auto;html=1;" edge="1" parent="XmcZN78wewVbucl7bVps-23" source="XmcZN78wewVbucl7bVps-39" target="XmcZN78wewVbucl7bVps-55">
          <mxGeometry relative="1" as="geometry" />
        </mxCell>
        <mxCell id="XmcZN78wewVbucl7bVps-39" value="Receive Repair Instructions" style="rounded=0;whiteSpace=wrap;html=1;" vertex="1" parent="XmcZN78wewVbucl7bVps-23">
          <mxGeometry x="550" y="80" width="140" height="40" as="geometry" />
        </mxCell>
        <mxCell id="XmcZN78wewVbucl7bVps-45" style="edgeStyle=orthogonalEdgeStyle;rounded=0;orthogonalLoop=1;jettySize=auto;html=1;" edge="1" parent="XmcZN78wewVbucl7bVps-23" source="XmcZN78wewVbucl7bVps-42" target="XmcZN78wewVbucl7bVps-44">
          <mxGeometry relative="1" as="geometry" />
        </mxCell>
        <mxCell id="XmcZN78wewVbucl7bVps-42" value="Execute Manipulations to isolate the Network" style="rounded=0;whiteSpace=wrap;html=1;" vertex="1" parent="XmcZN78wewVbucl7bVps-23">
          <mxGeometry x="260" y="360" width="160" height="40" as="geometry" />
        </mxCell>
        <mxCell id="XmcZN78wewVbucl7bVps-91" style="edgeStyle=orthogonalEdgeStyle;rounded=0;orthogonalLoop=1;jettySize=auto;html=1;entryX=0.25;entryY=1;entryDx=0;entryDy=0;" edge="1" parent="XmcZN78wewVbucl7bVps-23" source="XmcZN78wewVbucl7bVps-44" target="XmcZN78wewVbucl7bVps-84">
          <mxGeometry relative="1" as="geometry">
            <Array as="points">
              <mxPoint x="340" y="710" />
              <mxPoint x="1590" y="710" />
              <mxPoint x="1590" y="1040" />
              <mxPoint x="1910" y="1040" />
            </Array>
          </mxGeometry>
        </mxCell>
        <mxCell id="XmcZN78wewVbucl7bVps-92" value="NO" style="edgeLabel;html=1;align=center;verticalAlign=middle;resizable=0;points=[];" vertex="1" connectable="0" parent="XmcZN78wewVbucl7bVps-91">
          <mxGeometry x="-0.1464" y="-2" relative="1" as="geometry">
            <mxPoint x="1" as="offset" />
          </mxGeometry>
        </mxCell>
        <mxCell id="XmcZN78wewVbucl7bVps-44" value="Are Additional Resources Required?" style="rhombus;whiteSpace=wrap;html=1;" vertex="1" parent="XmcZN78wewVbucl7bVps-23">
          <mxGeometry x="282.5" y="440" width="115" height="160" as="geometry" />
        </mxCell>
        <mxCell id="XmcZN78wewVbucl7bVps-57" style="edgeStyle=orthogonalEdgeStyle;rounded=0;orthogonalLoop=1;jettySize=auto;html=1;entryX=0.5;entryY=0;entryDx=0;entryDy=0;" edge="1" parent="XmcZN78wewVbucl7bVps-23" source="XmcZN78wewVbucl7bVps-55" target="XmcZN78wewVbucl7bVps-42">
          <mxGeometry relative="1" as="geometry" />
        </mxCell>
        <mxCell id="XmcZN78wewVbucl7bVps-58" value="YES" style="edgeLabel;html=1;align=center;verticalAlign=middle;resizable=0;points=[];" vertex="1" connectable="0" parent="XmcZN78wewVbucl7bVps-57">
          <mxGeometry x="-0.2035" y="-1" relative="1" as="geometry">
            <mxPoint as="offset" />
          </mxGeometry>
        </mxCell>
        <mxCell id="XmcZN78wewVbucl7bVps-88" style="edgeStyle=orthogonalEdgeStyle;rounded=0;orthogonalLoop=1;jettySize=auto;html=1;entryX=0.5;entryY=1;entryDx=0;entryDy=0;" edge="1" parent="XmcZN78wewVbucl7bVps-23" source="XmcZN78wewVbucl7bVps-55" target="XmcZN78wewVbucl7bVps-84">
          <mxGeometry relative="1" as="geometry">
            <Array as="points">
              <mxPoint x="895" y="640" />
              <mxPoint x="1620" y="640" />
              <mxPoint x="1620" y="1000" />
              <mxPoint x="1940" y="1000" />
            </Array>
          </mxGeometry>
        </mxCell>
        <mxCell id="XmcZN78wewVbucl7bVps-89" value="NO" style="edgeLabel;html=1;align=center;verticalAlign=middle;resizable=0;points=[];" vertex="1" connectable="0" parent="XmcZN78wewVbucl7bVps-88">
          <mxGeometry x="0.0719" relative="1" as="geometry">
            <mxPoint as="offset" />
          </mxGeometry>
        </mxCell>
        <mxCell id="XmcZN78wewVbucl7bVps-55" value="Does the instructions require the network to be isolated?" style="rhombus;whiteSpace=wrap;html=1;rounded=0;" vertex="1" parent="XmcZN78wewVbucl7bVps-23">
          <mxGeometry x="790" y="160" width="210" height="330" as="geometry" />
        </mxCell>
        <mxCell id="XmcZN78wewVbucl7bVps-86" style="edgeStyle=orthogonalEdgeStyle;rounded=0;orthogonalLoop=1;jettySize=auto;html=1;entryX=0;entryY=0.5;entryDx=0;entryDy=0;" edge="1" parent="XmcZN78wewVbucl7bVps-23" source="XmcZN78wewVbucl7bVps-62" target="XmcZN78wewVbucl7bVps-84">
          <mxGeometry relative="1" as="geometry">
            <Array as="points">
              <mxPoint x="1300" y="510" />
              <mxPoint x="1820" y="510" />
              <mxPoint x="1820" y="930" />
            </Array>
          </mxGeometry>
        </mxCell>
        <mxCell id="XmcZN78wewVbucl7bVps-87" value="NO" style="edgeLabel;html=1;align=center;verticalAlign=middle;resizable=0;points=[];" vertex="1" connectable="0" parent="XmcZN78wewVbucl7bVps-86">
          <mxGeometry x="0.2973" y="3" relative="1" as="geometry">
            <mxPoint x="1" as="offset" />
          </mxGeometry>
        </mxCell>
        <mxCell id="XmcZN78wewVbucl7bVps-62" value="IS FAULT TOO BIG ??" style="rhombus;whiteSpace=wrap;html=1;" vertex="1" parent="XmcZN78wewVbucl7bVps-23">
          <mxGeometry x="1260" y="90" width="80" height="150" as="geometry" />
        </mxCell>
        <mxCell id="XmcZN78wewVbucl7bVps-64" value="Request another team" style="whiteSpace=wrap;html=1;" vertex="1" parent="XmcZN78wewVbucl7bVps-23">
          <mxGeometry x="1500" y="135" width="180" height="60" as="geometry" />
        </mxCell>
        <mxCell id="XmcZN78wewVbucl7bVps-65" value="YES" style="edgeStyle=orthogonalEdgeStyle;rounded=0;orthogonalLoop=1;jettySize=auto;html=1;" edge="1" parent="XmcZN78wewVbucl7bVps-23" source="XmcZN78wewVbucl7bVps-62" target="XmcZN78wewVbucl7bVps-64">
          <mxGeometry relative="1" as="geometry" />
        </mxCell>
        <mxCell id="XmcZN78wewVbucl7bVps-94" value="" style="edgeStyle=orthogonalEdgeStyle;rounded=0;orthogonalLoop=1;jettySize=auto;html=1;" edge="1" parent="XmcZN78wewVbucl7bVps-23" source="XmcZN78wewVbucl7bVps-84" target="XmcZN78wewVbucl7bVps-93">
          <mxGeometry relative="1" as="geometry" />
        </mxCell>
        <mxCell id="XmcZN78wewVbucl7bVps-84" value="Perform Repairs" style="whiteSpace=wrap;html=1;" vertex="1" parent="XmcZN78wewVbucl7bVps-23">
          <mxGeometry x="1880" y="900" width="120" height="60" as="geometry" />
        </mxCell>
        <mxCell id="XmcZN78wewVbucl7bVps-93" value="Documents Repairs in NEFR" style="whiteSpace=wrap;html=1;" vertex="1" parent="XmcZN78wewVbucl7bVps-23">
          <mxGeometry x="2080" y="900" width="210" height="60" as="geometry" />
        </mxCell>
        <mxCell id="XmcZN78wewVbucl7bVps-27" style="edgeStyle=orthogonalEdgeStyle;rounded=0;orthogonalLoop=1;jettySize=auto;html=1;" edge="1" parent="1" source="XmcZN78wewVbucl7bVps-17" target="XmcZN78wewVbucl7bVps-24">
          <mxGeometry relative="1" as="geometry" />
        </mxCell>
        <mxCell id="XmcZN78wewVbucl7bVps-33" style="edgeStyle=orthogonalEdgeStyle;rounded=0;orthogonalLoop=1;jettySize=auto;html=1;entryX=0;entryY=0.5;entryDx=0;entryDy=0;exitX=1;exitY=0.5;exitDx=0;exitDy=0;" edge="1" parent="1" source="XmcZN78wewVbucl7bVps-31" target="XmcZN78wewVbucl7bVps-32">
          <mxGeometry relative="1" as="geometry">
            <Array as="points">
              <mxPoint x="680" y="1020" />
              <mxPoint x="680" y="720" />
              <mxPoint x="440" y="720" />
              <mxPoint x="440" y="600" />
            </Array>
          </mxGeometry>
        </mxCell>
        <mxCell id="XmcZN78wewVbucl7bVps-41" style="edgeStyle=orthogonalEdgeStyle;rounded=0;orthogonalLoop=1;jettySize=auto;html=1;entryX=0.5;entryY=0;entryDx=0;entryDy=0;" edge="1" parent="1" source="XmcZN78wewVbucl7bVps-37" target="XmcZN78wewVbucl7bVps-39">
          <mxGeometry relative="1" as="geometry" />
        </mxCell>
        <mxCell id="XmcZN78wewVbucl7bVps-59" style="edgeStyle=orthogonalEdgeStyle;rounded=0;orthogonalLoop=1;jettySize=auto;html=1;entryX=0.451;entryY=1.018;entryDx=0;entryDy=0;entryPerimeter=0;" edge="1" parent="1" source="XmcZN78wewVbucl7bVps-44" target="XmcZN78wewVbucl7bVps-48">
          <mxGeometry relative="1" as="geometry">
            <mxPoint x="1220" y="758.5714285714286" as="targetPoint" />
          </mxGeometry>
        </mxCell>
        <mxCell id="XmcZN78wewVbucl7bVps-60" value="YES" style="edgeLabel;html=1;align=center;verticalAlign=middle;resizable=0;points=[];" vertex="1" connectable="0" parent="XmcZN78wewVbucl7bVps-59">
          <mxGeometry x="-0.7187" y="-1" relative="1" as="geometry">
            <mxPoint x="-1" as="offset" />
          </mxGeometry>
        </mxCell>
        <mxCell id="XmcZN78wewVbucl7bVps-63" value="" style="edgeStyle=orthogonalEdgeStyle;rounded=0;orthogonalLoop=1;jettySize=auto;html=1;" edge="1" parent="1" source="XmcZN78wewVbucl7bVps-48" target="XmcZN78wewVbucl7bVps-62">
          <mxGeometry relative="1" as="geometry" />
        </mxCell>
        <mxCell id="XmcZN78wewVbucl7bVps-83" style="edgeStyle=orthogonalEdgeStyle;rounded=0;orthogonalLoop=1;jettySize=auto;html=1;entryX=0.373;entryY=1.017;entryDx=0;entryDy=0;entryPerimeter=0;" edge="1" parent="1" source="XmcZN78wewVbucl7bVps-64" target="XmcZN78wewVbucl7bVps-82">
          <mxGeometry relative="1" as="geometry" />
        </mxCell>
        <mxCell id="XmcZN78wewVbucl7bVps-85" style="edgeStyle=orthogonalEdgeStyle;rounded=0;orthogonalLoop=1;jettySize=auto;html=1;entryX=0.5;entryY=0;entryDx=0;entryDy=0;" edge="1" parent="1" source="XmcZN78wewVbucl7bVps-82" target="XmcZN78wewVbucl7bVps-84">
          <mxGeometry relative="1" as="geometry">
            <Array as="points">
              <mxPoint x="2120" y="670" />
              <mxPoint x="2120" y="1330" />
            </Array>
          </mxGeometry>
        </mxCell>
        <mxCell id="XmcZN78wewVbucl7bVps-95" value="EXECUTIVE ENGINEER" style="swimlane;horizontal=0;whiteSpace=wrap;html=1;" vertex="1" parent="1">
          <mxGeometry x="180" y="2000" width="2550" height="200" as="geometry" />
        </mxCell>
        <mxCell id="XmcZN78wewVbucl7bVps-112" value="" style="edgeStyle=orthogonalEdgeStyle;rounded=0;orthogonalLoop=1;jettySize=auto;html=1;" edge="1" parent="XmcZN78wewVbucl7bVps-95" source="XmcZN78wewVbucl7bVps-110" target="XmcZN78wewVbucl7bVps-111">
          <mxGeometry relative="1" as="geometry" />
        </mxCell>
        <mxCell id="XmcZN78wewVbucl7bVps-110" value="Review NEFR and related documents" style="whiteSpace=wrap;html=1;" vertex="1" parent="XmcZN78wewVbucl7bVps-95">
          <mxGeometry x="2200" y="58" width="210" height="60" as="geometry" />
        </mxCell>
        <mxCell id="XmcZN78wewVbucl7bVps-114" style="edgeStyle=orthogonalEdgeStyle;rounded=0;orthogonalLoop=1;jettySize=auto;html=1;entryX=1;entryY=0.5;entryDx=0;entryDy=0;" edge="1" parent="XmcZN78wewVbucl7bVps-95" source="XmcZN78wewVbucl7bVps-111" target="XmcZN78wewVbucl7bVps-113">
          <mxGeometry relative="1" as="geometry">
            <mxPoint x="1620" y="87.99999999999955" as="targetPoint" />
          </mxGeometry>
        </mxCell>
        <mxCell id="XmcZN78wewVbucl7bVps-111" value="Generate final report for the region" style="whiteSpace=wrap;html=1;" vertex="1" parent="XmcZN78wewVbucl7bVps-95">
          <mxGeometry x="1955" y="58" width="120" height="60" as="geometry" />
        </mxCell>
        <mxCell id="XmcZN78wewVbucl7bVps-113" value="END" style="rounded=1;whiteSpace=wrap;html=1;" vertex="1" parent="XmcZN78wewVbucl7bVps-95">
          <mxGeometry x="1180" y="68" width="120" height="40" as="geometry" />
        </mxCell>
        <mxCell id="XmcZN78wewVbucl7bVps-101" style="edgeStyle=orthogonalEdgeStyle;rounded=0;orthogonalLoop=1;jettySize=auto;html=1;entryX=0.5;entryY=1;entryDx=0;entryDy=0;exitX=1;exitY=0.25;exitDx=0;exitDy=0;" edge="1" parent="1" source="XmcZN78wewVbucl7bVps-93" target="XmcZN78wewVbucl7bVps-96">
          <mxGeometry relative="1" as="geometry">
            <Array as="points">
              <mxPoint x="2470" y="1850" />
              <mxPoint x="2528" y="1850" />
            </Array>
          </mxGeometry>
        </mxCell>
        <mxCell id="XmcZN78wewVbucl7bVps-117" style="edgeStyle=orthogonalEdgeStyle;rounded=0;orthogonalLoop=1;jettySize=auto;html=1;exitX=1;exitY=0.5;exitDx=0;exitDy=0;entryX=1;entryY=0.5;entryDx=0;entryDy=0;" edge="1" parent="1" source="XmcZN78wewVbucl7bVps-96" target="XmcZN78wewVbucl7bVps-110">
          <mxGeometry relative="1" as="geometry" />
        </mxCell>
      </root>
    </mxGraphModel>
  </diagram>
</mxfile>
